<mxfile host="app.diagrams.net" agent="Mozilla/5.0 (Macintosh; Intel Mac OS X 10_15_7) AppleWebKit/537.36 (KHTML, like Gecko) Chrome/133.0.0.0 Safari/537.36" version="26.0.15" pages="2">
  <diagram name="Page-1" id="R1Zm-C9BT86NUQ-tbebm">
    <mxGraphModel dx="2074" dy="1155" grid="1" gridSize="10" guides="1" tooltips="1" connect="1" arrows="1" fold="1" page="1" pageScale="1" pageWidth="850" pageHeight="1100" background="#ffffff" math="0" shadow="0">
      <root>
        <mxCell id="0" />
        <mxCell id="1" parent="0" />
        <mxCell id="BhE8mrxoXwVcs0QpaUs0-21" value="" style="rounded=1;whiteSpace=wrap;html=1;fillColor=#ffe6cc;strokeColor=#d79b00;" vertex="1" parent="1">
          <mxGeometry x="446" y="220" width="268" height="470" as="geometry" />
        </mxCell>
        <mxCell id="mCWoq_mTYpj9pdkhJT9a-1" value="&lt;font style=&quot;font-size: 15px;&quot;&gt;Dropout&lt;/font&gt;" style="rounded=1;whiteSpace=wrap;html=1;fillColor=#dae8fc;strokeColor=#6c8ebf;" vertex="1" parent="1">
          <mxGeometry x="520" y="280" width="120" height="30" as="geometry" />
        </mxCell>
        <mxCell id="mCWoq_mTYpj9pdkhJT9a-3" value="&lt;font style=&quot;font-size: 15px;&quot;&gt;FC&lt;/font&gt;" style="rounded=1;whiteSpace=wrap;html=1;fillColor=#f8cecc;strokeColor=#b85450;" vertex="1" parent="1">
          <mxGeometry x="520" y="340" width="120" height="30" as="geometry" />
        </mxCell>
        <mxCell id="mCWoq_mTYpj9pdkhJT9a-4" value="&lt;font style=&quot;font-size: 15px;&quot;&gt;LayerNorm&lt;/font&gt;" style="rounded=1;whiteSpace=wrap;html=1;fillColor=#008a00;fontColor=#ffffff;strokeColor=#005700;" vertex="1" parent="1">
          <mxGeometry x="520" y="400" width="120" height="30" as="geometry" />
        </mxCell>
        <mxCell id="mCWoq_mTYpj9pdkhJT9a-5" value="&lt;font style=&quot;font-size: 15px;&quot;&gt;Dropout&lt;/font&gt;" style="rounded=1;whiteSpace=wrap;html=1;fillColor=#dae8fc;strokeColor=#6c8ebf;" vertex="1" parent="1">
          <mxGeometry x="520" y="490" width="120" height="30" as="geometry" />
        </mxCell>
        <mxCell id="mCWoq_mTYpj9pdkhJT9a-6" value="&lt;font style=&quot;font-size: 15px;&quot;&gt;Multi-Head&lt;/font&gt;&lt;div&gt;&lt;font style=&quot;font-size: 15px;&quot;&gt;Attention&lt;/font&gt;&lt;/div&gt;" style="rounded=1;whiteSpace=wrap;html=1;fillColor=#d5e8d4;strokeColor=#82b366;" vertex="1" parent="1">
          <mxGeometry x="520" y="550" width="120" height="50" as="geometry" />
        </mxCell>
        <mxCell id="mCWoq_mTYpj9pdkhJT9a-7" value="&lt;font style=&quot;font-size: 15px;&quot;&gt;LayerNorm&lt;/font&gt;" style="rounded=1;whiteSpace=wrap;html=1;fillColor=#008a00;fontColor=#ffffff;strokeColor=#005700;" vertex="1" parent="1">
          <mxGeometry x="520" y="630" width="120" height="30" as="geometry" />
        </mxCell>
        <mxCell id="mCWoq_mTYpj9pdkhJT9a-11" value="" style="endArrow=classic;html=1;rounded=0;" edge="1" parent="1">
          <mxGeometry width="50" height="50" relative="1" as="geometry">
            <mxPoint x="580" y="630" as="sourcePoint" />
            <mxPoint x="579.5" y="600" as="targetPoint" />
            <Array as="points" />
          </mxGeometry>
        </mxCell>
        <mxCell id="mCWoq_mTYpj9pdkhJT9a-12" value="" style="endArrow=classic;html=1;rounded=0;" edge="1" parent="1">
          <mxGeometry width="50" height="50" relative="1" as="geometry">
            <mxPoint x="580" y="550" as="sourcePoint" />
            <mxPoint x="579.5" y="520" as="targetPoint" />
            <Array as="points" />
          </mxGeometry>
        </mxCell>
        <mxCell id="mCWoq_mTYpj9pdkhJT9a-14" value="" style="endArrow=classic;html=1;rounded=0;" edge="1" parent="1">
          <mxGeometry width="50" height="50" relative="1" as="geometry">
            <mxPoint x="579" y="490" as="sourcePoint" />
            <mxPoint x="578.5" y="470" as="targetPoint" />
            <Array as="points" />
          </mxGeometry>
        </mxCell>
        <mxCell id="BhE8mrxoXwVcs0QpaUs0-1" value="" style="endArrow=classic;html=1;rounded=0;" edge="1" parent="1">
          <mxGeometry width="50" height="50" relative="1" as="geometry">
            <mxPoint x="578" y="450" as="sourcePoint" />
            <mxPoint x="577.5" y="430" as="targetPoint" />
            <Array as="points" />
          </mxGeometry>
        </mxCell>
        <mxCell id="BhE8mrxoXwVcs0QpaUs0-2" value="" style="endArrow=classic;html=1;rounded=0;" edge="1" parent="1">
          <mxGeometry width="50" height="50" relative="1" as="geometry">
            <mxPoint x="578" y="399" as="sourcePoint" />
            <mxPoint x="577.5" y="369" as="targetPoint" />
            <Array as="points" />
          </mxGeometry>
        </mxCell>
        <mxCell id="BhE8mrxoXwVcs0QpaUs0-3" value="" style="endArrow=classic;html=1;rounded=0;" edge="1" parent="1">
          <mxGeometry width="50" height="50" relative="1" as="geometry">
            <mxPoint x="578" y="339" as="sourcePoint" />
            <mxPoint x="577.5" y="309" as="targetPoint" />
            <Array as="points" />
          </mxGeometry>
        </mxCell>
        <mxCell id="BhE8mrxoXwVcs0QpaUs0-4" value="" style="endArrow=classic;html=1;rounded=0;" edge="1" parent="1">
          <mxGeometry width="50" height="50" relative="1" as="geometry">
            <mxPoint x="580" y="700" as="sourcePoint" />
            <mxPoint x="579.5" y="660" as="targetPoint" />
            <Array as="points" />
          </mxGeometry>
        </mxCell>
        <mxCell id="BhE8mrxoXwVcs0QpaUs0-6" value="" style="endArrow=classic;html=1;rounded=0;" edge="1" parent="1">
          <mxGeometry width="50" height="50" relative="1" as="geometry">
            <mxPoint x="577" y="231" as="sourcePoint" />
            <mxPoint x="576.5" y="201" as="targetPoint" />
            <Array as="points" />
          </mxGeometry>
        </mxCell>
        <mxCell id="BhE8mrxoXwVcs0QpaUs0-7" value="" style="verticalLabelPosition=bottom;verticalAlign=top;html=1;shape=mxgraph.flowchart.summing_function;" vertex="1" parent="1">
          <mxGeometry x="568" y="450" width="20" height="20" as="geometry" />
        </mxCell>
        <mxCell id="BhE8mrxoXwVcs0QpaUs0-10" value="" style="endArrow=classic;html=1;rounded=0;" edge="1" parent="1">
          <mxGeometry width="50" height="50" relative="1" as="geometry">
            <mxPoint x="681" y="460" as="sourcePoint" />
            <mxPoint x="589" y="459.5" as="targetPoint" />
          </mxGeometry>
        </mxCell>
        <mxCell id="BhE8mrxoXwVcs0QpaUs0-12" value="" style="endArrow=none;html=1;rounded=0;" edge="1" parent="1">
          <mxGeometry width="50" height="50" relative="1" as="geometry">
            <mxPoint x="680" y="674" as="sourcePoint" />
            <mxPoint x="680" y="460" as="targetPoint" />
          </mxGeometry>
        </mxCell>
        <mxCell id="BhE8mrxoXwVcs0QpaUs0-14" value="" style="endArrow=none;html=1;rounded=0;" edge="1" parent="1">
          <mxGeometry width="50" height="50" relative="1" as="geometry">
            <mxPoint x="580" y="673" as="sourcePoint" />
            <mxPoint x="660" y="673" as="targetPoint" />
            <Array as="points">
              <mxPoint x="660" y="673" />
              <mxPoint x="680" y="673" />
            </Array>
          </mxGeometry>
        </mxCell>
        <mxCell id="BhE8mrxoXwVcs0QpaUs0-15" value="" style="verticalLabelPosition=bottom;verticalAlign=top;html=1;shape=mxgraph.flowchart.summing_function;" vertex="1" parent="1">
          <mxGeometry x="567" y="231" width="20" height="20" as="geometry" />
        </mxCell>
        <mxCell id="BhE8mrxoXwVcs0QpaUs0-16" value="" style="endArrow=classic;html=1;rounded=0;" edge="1" parent="1">
          <mxGeometry width="50" height="50" relative="1" as="geometry">
            <mxPoint x="679" y="241" as="sourcePoint" />
            <mxPoint x="587" y="240.5" as="targetPoint" />
          </mxGeometry>
        </mxCell>
        <mxCell id="BhE8mrxoXwVcs0QpaUs0-18" value="" style="endArrow=classic;html=1;rounded=0;" edge="1" parent="1">
          <mxGeometry width="50" height="50" relative="1" as="geometry">
            <mxPoint x="578" y="280" as="sourcePoint" />
            <mxPoint x="577.5" y="250" as="targetPoint" />
            <Array as="points" />
          </mxGeometry>
        </mxCell>
        <mxCell id="BhE8mrxoXwVcs0QpaUs0-19" value="" style="endArrow=none;html=1;rounded=0;" edge="1" parent="1">
          <mxGeometry width="50" height="50" relative="1" as="geometry">
            <mxPoint x="579" y="390" as="sourcePoint" />
            <mxPoint x="659" y="390" as="targetPoint" />
            <Array as="points">
              <mxPoint x="659" y="390" />
              <mxPoint x="679" y="390" />
            </Array>
          </mxGeometry>
        </mxCell>
        <mxCell id="BhE8mrxoXwVcs0QpaUs0-20" value="" style="endArrow=none;html=1;rounded=0;" edge="1" parent="1">
          <mxGeometry width="50" height="50" relative="1" as="geometry">
            <mxPoint x="680" y="390" as="sourcePoint" />
            <mxPoint x="680" y="240" as="targetPoint" />
          </mxGeometry>
        </mxCell>
        <mxCell id="BhE8mrxoXwVcs0QpaUs0-22" value="&lt;font style=&quot;font-size: 15px;&quot;&gt;Softmax&lt;/font&gt;" style="rounded=1;whiteSpace=wrap;html=1;fillColor=#bac8d3;strokeColor=#23445d;" vertex="1" parent="1">
          <mxGeometry x="140" y="230" width="120" height="30" as="geometry" />
        </mxCell>
        <mxCell id="BhE8mrxoXwVcs0QpaUs0-23" value="&lt;font style=&quot;font-size: 15px;&quot;&gt;FC&lt;/font&gt;" style="rounded=1;whiteSpace=wrap;html=1;fillColor=#f8cecc;strokeColor=#b85450;" vertex="1" parent="1">
          <mxGeometry x="140" y="290" width="120" height="30" as="geometry" />
        </mxCell>
        <mxCell id="BhE8mrxoXwVcs0QpaUs0-24" value="&lt;font style=&quot;font-size: 15px;&quot;&gt;LayerNorm&lt;/font&gt;" style="rounded=1;whiteSpace=wrap;html=1;fillColor=#008a00;fontColor=#ffffff;strokeColor=#005700;" vertex="1" parent="1">
          <mxGeometry x="140" y="350" width="120" height="30" as="geometry" />
        </mxCell>
        <mxCell id="BhE8mrxoXwVcs0QpaUs0-26" value="&lt;span style=&quot;font-size: 15px;&quot;&gt;Transformer block #1&lt;/span&gt;" style="rounded=1;whiteSpace=wrap;html=1;fillColor=#ffe6cc;strokeColor=#d79b00;" vertex="1" parent="1">
          <mxGeometry x="140" y="571" width="120" height="50" as="geometry" />
        </mxCell>
        <mxCell id="BhE8mrxoXwVcs0QpaUs0-27" value="&lt;font style=&quot;font-size: 15px;&quot;&gt;Dropout&lt;/font&gt;" style="rounded=1;whiteSpace=wrap;html=1;fillColor=#dae8fc;strokeColor=#6c8ebf;" vertex="1" parent="1">
          <mxGeometry x="140" y="651" width="120" height="30" as="geometry" />
        </mxCell>
        <mxCell id="BhE8mrxoXwVcs0QpaUs0-28" value="" style="endArrow=classic;html=1;rounded=0;" edge="1" parent="1">
          <mxGeometry width="50" height="50" relative="1" as="geometry">
            <mxPoint x="200" y="651" as="sourcePoint" />
            <mxPoint x="199.5" y="621" as="targetPoint" />
            <Array as="points" />
          </mxGeometry>
        </mxCell>
        <mxCell id="BhE8mrxoXwVcs0QpaUs0-32" value="" style="endArrow=classic;html=1;rounded=0;" edge="1" parent="1">
          <mxGeometry width="50" height="50" relative="1" as="geometry">
            <mxPoint x="198" y="349" as="sourcePoint" />
            <mxPoint x="197.5" y="319" as="targetPoint" />
            <Array as="points" />
          </mxGeometry>
        </mxCell>
        <mxCell id="BhE8mrxoXwVcs0QpaUs0-33" value="" style="endArrow=classic;html=1;rounded=0;" edge="1" parent="1">
          <mxGeometry width="50" height="50" relative="1" as="geometry">
            <mxPoint x="198" y="289" as="sourcePoint" />
            <mxPoint x="197.5" y="259" as="targetPoint" />
            <Array as="points" />
          </mxGeometry>
        </mxCell>
        <mxCell id="BhE8mrxoXwVcs0QpaUs0-34" value="" style="endArrow=classic;html=1;rounded=0;" edge="1" parent="1">
          <mxGeometry width="50" height="50" relative="1" as="geometry">
            <mxPoint x="200" y="711" as="sourcePoint" />
            <mxPoint x="199.5" y="681" as="targetPoint" />
            <Array as="points" />
          </mxGeometry>
        </mxCell>
        <mxCell id="BhE8mrxoXwVcs0QpaUs0-37" value="" style="endArrow=classic;html=1;rounded=0;" edge="1" parent="1">
          <mxGeometry width="50" height="50" relative="1" as="geometry">
            <mxPoint x="198" y="230" as="sourcePoint" />
            <mxPoint x="197.5" y="200" as="targetPoint" />
            <Array as="points" />
          </mxGeometry>
        </mxCell>
        <mxCell id="BhE8mrxoXwVcs0QpaUs0-42" value="" style="shape=waypoint;sketch=0;fillStyle=solid;size=6;pointerEvents=1;points=[];fillColor=none;resizable=0;rotatable=0;perimeter=centerPerimeter;snapToPoint=1;" vertex="1" parent="1">
          <mxGeometry x="189" y="493" width="20" height="20" as="geometry" />
        </mxCell>
        <mxCell id="BhE8mrxoXwVcs0QpaUs0-43" value="" style="shape=waypoint;sketch=0;fillStyle=solid;size=6;pointerEvents=1;points=[];fillColor=none;resizable=0;rotatable=0;perimeter=centerPerimeter;snapToPoint=1;" vertex="1" parent="1">
          <mxGeometry x="189" y="503" width="20" height="20" as="geometry" />
        </mxCell>
        <mxCell id="BhE8mrxoXwVcs0QpaUs0-44" value="" style="shape=waypoint;sketch=0;fillStyle=solid;size=6;pointerEvents=1;points=[];fillColor=none;resizable=0;rotatable=0;perimeter=centerPerimeter;snapToPoint=1;" vertex="1" parent="1">
          <mxGeometry x="189" y="513" width="20" height="20" as="geometry" />
        </mxCell>
        <mxCell id="BhE8mrxoXwVcs0QpaUs0-47" value="" style="endArrow=classic;html=1;rounded=0;" edge="1" parent="1">
          <mxGeometry width="50" height="50" relative="1" as="geometry">
            <mxPoint x="200" y="571" as="sourcePoint" />
            <mxPoint x="199.5" y="541" as="targetPoint" />
            <Array as="points" />
          </mxGeometry>
        </mxCell>
        <mxCell id="BhE8mrxoXwVcs0QpaUs0-48" value="" style="endArrow=classic;html=1;rounded=0;" edge="1" parent="1">
          <mxGeometry width="50" height="50" relative="1" as="geometry">
            <mxPoint x="200" y="491" as="sourcePoint" />
            <mxPoint x="199.5" y="461" as="targetPoint" />
            <Array as="points" />
          </mxGeometry>
        </mxCell>
        <mxCell id="BhE8mrxoXwVcs0QpaUs0-49" value="&lt;span style=&quot;font-size: 15px;&quot;&gt;Transformer block #N&lt;/span&gt;" style="rounded=1;whiteSpace=wrap;html=1;fillColor=#ffe6cc;strokeColor=#d79b00;" vertex="1" parent="1">
          <mxGeometry x="140" y="410" width="120" height="50" as="geometry" />
        </mxCell>
        <mxCell id="BhE8mrxoXwVcs0QpaUs0-50" value="" style="shape=curlyBracket;whiteSpace=wrap;html=1;rounded=1;labelPosition=left;verticalLabelPosition=middle;align=right;verticalAlign=middle;" vertex="1" parent="1">
          <mxGeometry x="105" y="445" width="20" height="140" as="geometry" />
        </mxCell>
        <mxCell id="BhE8mrxoXwVcs0QpaUs0-51" value="" style="verticalLabelPosition=bottom;verticalAlign=top;html=1;shape=mxgraph.flowchart.summing_function;" vertex="1" parent="1">
          <mxGeometry x="190" y="712" width="20" height="20" as="geometry" />
        </mxCell>
        <mxCell id="BhE8mrxoXwVcs0QpaUs0-52" value="" style="endArrow=classic;html=1;rounded=0;" edge="1" parent="1">
          <mxGeometry width="50" height="50" relative="1" as="geometry">
            <mxPoint x="200" y="761" as="sourcePoint" />
            <mxPoint x="199.5" y="731" as="targetPoint" />
            <Array as="points" />
          </mxGeometry>
        </mxCell>
        <mxCell id="BhE8mrxoXwVcs0QpaUs0-54" value="&lt;span style=&quot;font-size: 15px;&quot;&gt;Positional embedding&lt;/span&gt;" style="rounded=1;whiteSpace=wrap;html=1;fillColor=#e3c800;strokeColor=#B09500;fontColor=#000000;" vertex="1" parent="1">
          <mxGeometry x="290" y="697" width="120" height="50" as="geometry" />
        </mxCell>
        <mxCell id="BhE8mrxoXwVcs0QpaUs0-55" value="&lt;span style=&quot;font-size: 15px;&quot;&gt;Token embedding&lt;/span&gt;" style="rounded=1;whiteSpace=wrap;html=1;fillColor=#e3c800;strokeColor=#B09500;fontColor=#000000;" vertex="1" parent="1">
          <mxGeometry x="140" y="757" width="120" height="50" as="geometry" />
        </mxCell>
        <mxCell id="BhE8mrxoXwVcs0QpaUs0-56" value="" style="endArrow=classic;html=1;rounded=0;" edge="1" parent="1">
          <mxGeometry width="50" height="50" relative="1" as="geometry">
            <mxPoint x="290" y="722" as="sourcePoint" />
            <mxPoint x="209" y="721.5" as="targetPoint" />
          </mxGeometry>
        </mxCell>
        <mxCell id="BhE8mrxoXwVcs0QpaUs0-57" value="" style="endArrow=classic;html=1;rounded=0;" edge="1" parent="1">
          <mxGeometry width="50" height="50" relative="1" as="geometry">
            <mxPoint x="200" y="411" as="sourcePoint" />
            <mxPoint x="199.5" y="381" as="targetPoint" />
            <Array as="points" />
          </mxGeometry>
        </mxCell>
        <mxCell id="BhE8mrxoXwVcs0QpaUs0-58" value="" style="endArrow=none;dashed=1;html=1;rounded=0;entryX=0.019;entryY=0.049;entryDx=0;entryDy=0;entryPerimeter=0;" edge="1" parent="1" target="BhE8mrxoXwVcs0QpaUs0-21">
          <mxGeometry width="50" height="50" relative="1" as="geometry">
            <mxPoint x="260" y="410" as="sourcePoint" />
            <mxPoint x="310" y="360" as="targetPoint" />
          </mxGeometry>
        </mxCell>
        <mxCell id="BhE8mrxoXwVcs0QpaUs0-59" value="" style="endArrow=none;dashed=1;html=1;rounded=0;exitX=1;exitY=1;exitDx=0;exitDy=0;entryX=0.052;entryY=0.981;entryDx=0;entryDy=0;entryPerimeter=0;" edge="1" parent="1" source="BhE8mrxoXwVcs0QpaUs0-49" target="BhE8mrxoXwVcs0QpaUs0-21">
          <mxGeometry width="50" height="50" relative="1" as="geometry">
            <mxPoint x="440" y="680" as="sourcePoint" />
            <mxPoint x="490" y="630" as="targetPoint" />
          </mxGeometry>
        </mxCell>
        <mxCell id="BhE8mrxoXwVcs0QpaUs0-65" value="" style="edgeStyle=orthogonalEdgeStyle;rounded=0;orthogonalLoop=1;jettySize=auto;html=1;" edge="1" parent="1" target="mCWoq_mTYpj9pdkhJT9a-7">
          <mxGeometry relative="1" as="geometry">
            <mxPoint x="580" y="710" as="sourcePoint" />
          </mxGeometry>
        </mxCell>
        <mxCell id="BhE8mrxoXwVcs0QpaUs0-60" value="Block input" style="text;strokeColor=none;align=center;fillColor=none;html=1;verticalAlign=middle;whiteSpace=wrap;rounded=0;fontSize=15;" vertex="1" parent="1">
          <mxGeometry x="525" y="702" width="110" height="30" as="geometry" />
        </mxCell>
        <mxCell id="BhE8mrxoXwVcs0QpaUs0-61" value="Block output" style="text;strokeColor=none;align=center;fillColor=none;html=1;verticalAlign=middle;whiteSpace=wrap;rounded=0;fontSize=15;" vertex="1" parent="1">
          <mxGeometry x="525" y="172" width="110" height="30" as="geometry" />
        </mxCell>
        <mxCell id="BhE8mrxoXwVcs0QpaUs0-62" value="" style="endArrow=classic;html=1;rounded=0;" edge="1" parent="1">
          <mxGeometry width="50" height="50" relative="1" as="geometry">
            <mxPoint x="200" y="837" as="sourcePoint" />
            <mxPoint x="199.5" y="807" as="targetPoint" />
            <Array as="points" />
          </mxGeometry>
        </mxCell>
        <mxCell id="BhE8mrxoXwVcs0QpaUs0-63" value="Input" style="text;strokeColor=none;align=center;fillColor=none;html=1;verticalAlign=middle;whiteSpace=wrap;rounded=0;fontSize=15;" vertex="1" parent="1">
          <mxGeometry x="145" y="836" width="110" height="30" as="geometry" />
        </mxCell>
        <mxCell id="BhE8mrxoXwVcs0QpaUs0-64" value="Output" style="text;strokeColor=none;align=center;fillColor=none;html=1;verticalAlign=middle;whiteSpace=wrap;rounded=0;fontSize=15;" vertex="1" parent="1">
          <mxGeometry x="145" y="162" width="110" height="30" as="geometry" />
        </mxCell>
        <mxCell id="BhE8mrxoXwVcs0QpaUs0-66" value="N" style="text;strokeColor=none;align=center;fillColor=none;html=1;verticalAlign=middle;whiteSpace=wrap;rounded=0;fontSize=15;" vertex="1" parent="1">
          <mxGeometry x="40" y="499" width="110" height="30" as="geometry" />
        </mxCell>
      </root>
    </mxGraphModel>
  </diagram>
  <diagram id="MrN4MtMyTiu2hYTv3j9a" name="Page-2">
    <mxGraphModel dx="2074" dy="1155" grid="1" gridSize="10" guides="1" tooltips="1" connect="1" arrows="1" fold="1" page="1" pageScale="1" pageWidth="850" pageHeight="1100" math="0" shadow="0">
      <root>
        <mxCell id="0" />
        <mxCell id="1" parent="0" />
      </root>
    </mxGraphModel>
  </diagram>
</mxfile>
